<?xml version="1.0" encoding="UTF-8" standalone="no"?>
<!-- Created with Inkscape (http://www.inkscape.org/) -->

<svg
   width="195.8494mm"
   height="154.70003mm"
   viewBox="0 0 195.84939 154.70003"
   version="1.1"
   id="svg5"
   inkscape:version="1.1.1 (3bf5ae0d25, 2021-09-20)"
   sodipodi:docname="music-calendary.svg"
   xmlns:inkscape="http://www.inkscape.org/namespaces/inkscape"
   xmlns:sodipodi="http://sodipodi.sourceforge.net/DTD/sodipodi-0.dtd"
   xmlns:xlink="http://www.w3.org/1999/xlink"
   xmlns="http://www.w3.org/2000/svg"
   xmlns:svg="http://www.w3.org/2000/svg">
  <sodipodi:namedview
     id="namedview7"
     pagecolor="#ffffff"
     bordercolor="#666666"
     borderopacity="1.0"
     inkscape:pageshadow="2"
     inkscape:pageopacity="0.0"
     inkscape:pagecheckerboard="0"
     inkscape:document-units="mm"
     showgrid="false"
     fit-margin-top="0"
     fit-margin-left="0"
     fit-margin-right="0"
     fit-margin-bottom="0"
     inkscape:zoom="0.74154471"
     inkscape:cx="83.609254"
     inkscape:cy="142.27059"
     inkscape:window-width="1920"
     inkscape:window-height="1011"
     inkscape:window-x="0"
     inkscape:window-y="0"
     inkscape:window-maximized="1"
     inkscape:current-layer="layer1" />
  <defs
     id="defs2">
    <linearGradient
       inkscape:collect="always"
       id="linearGradient5089">
      <stop
         style="stop-color:#0000ff;stop-opacity:1"
         offset="0"
         id="stop5085" />
      <stop
         style="stop-color:#da00ff;stop-opacity:1"
         offset="1"
         id="stop5087" />
    </linearGradient>
    <linearGradient
       inkscape:collect="always"
       xlink:href="#linearGradient5089"
       id="linearGradient5091"
       x1="63.081322"
       y1="-52.562668"
       x2="72.414841"
       y2="210.54919"
       gradientUnits="userSpaceOnUse"
       gradientTransform="matrix(1.4153988,0,0,1.1806869,-23.025399,-39.761061)" />
  </defs>
  <g
     inkscape:label="Warstwa 1"
     inkscape:groupmode="layer"
     id="layer1"
     transform="translate(0.34973454,-24.210079)">
    <path
       fill="#444444"
       d="m 58.868614,57.86581 c -15.463966,24.515359 -2.714371,84.04396 -2.714371,84.04396 -5.650383,-2.0557 -12.713398,-4.11111 -21.189,-4.11111 -19.776413,0 -35.31497754,9.25006 -35.31497754,20.55574 0,11.3056 15.53856454,20.55571 35.31497754,20.55571 19.776419,0 35.31498,-9.25011 35.31498,-20.55571 0,-30.48132 -21.395016,-67.443102 0,-91.444002 20.46754,-22.960456 70.258967,-38.634792 96.696397,-20.993947 20.011,13.352719 2.18563,66.187479 2.18563,66.187479 -5.65043,-3.08313 -12.71339,-5.13889 -21.189,-5.13889 -19.77642,0 -35.31504,9.25006 -35.31504,20.55574 0,11.30564 15.53862,20.55572 35.31504,20.55572 19.77637,0 39.24321,-30.50828 32.33216,-20.97004 0,0 32.10219,-81.626674 2.98279,-96.402621 C 150.15256,13.889863 75.094565,32.142454 58.868614,57.86581 Z"
       id="path4020"
       style="fill:url(#linearGradient5091);fill-opacity:1;stroke-width:12.0493"
       sodipodi:nodetypes="scsssssscssssss" />
  </g>
</svg>
